<?xml version="1.0" encoding="utf-8"?>
<!-- Generator: Adobe Illustrator 25.2.1, SVG Export Plug-In . SVG Version: 6.00 Build 0)  -->
<svg version="1.1" id="Layer_1" xmlns="http://www.w3.org/2000/svg" xmlns:xlink="http://www.w3.org/1999/xlink" x="0px" y="0px"
	 viewBox="0 0 612 305.1" style="enable-background:new 0 0 612 305.1;" xml:space="preserve">
<style type="text/css">
	.st0{fill:#A5D2D7;}
	.st1{fill:#E9E9E9;}
</style>
<g>
	<rect class="st0" width="612" height="305.1"/>
	<path class="st1" d="M171.76,58.3c-0.36,0-0.71,0.01-1.06,0.03c0-0.16,0.01-0.32,0.01-0.48c0-12.49-10.12-22.61-22.61-22.61
		c-5.4,0-10.35,1.89-14.24,5.05c-4.07-7.43-11.96-12.47-21.03-12.47c-13.23,0-23.96,10.73-23.96,23.96c0,2.27,0.32,4.46,0.91,6.54
		c-0.34-0.02-0.68-0.03-1.03-0.03c-11.03,0-19.97,8.94-19.97,19.97c0,11.03,8.94,19.97,19.97,19.97h83
		c11.03,0,19.97-8.94,19.97-19.97C191.73,67.24,182.79,58.3,171.76,58.3z"/>
	<path class="st1" d="M410.76,236.97c0.87-2,1.36-4.2,1.36-6.52c0-9.02-7.32-16.34-16.34-16.34c-1.32,0-2.59,0.16-3.82,0.45
		c0.2-1.07,0.31-2.18,0.31-3.31c0-9.98-8.09-18.07-18.07-18.07c-7.55,0-14.01,4.63-16.72,11.21c-2.74-3.29-6.87-5.39-11.5-5.39
		c-8.26,0-14.95,6.69-14.95,14.95c0,0.38,0.02,0.75,0.05,1.12c-1.73-0.62-3.59-0.96-5.53-0.96c-9.02,0-16.34,7.32-16.34,16.34
		c0,2.26,0.46,4.42,1.29,6.38c-7.73,0.3-13.9,6.66-13.9,14.46c0,7.99,6.48,14.47,14.47,14.47h97.57c7.99,0,14.47-6.48,14.47-14.47
		C423.12,244.01,417.75,237.99,410.76,236.97z"/>
	<path class="st1" d="M251.15,176.31c-0.24,0-0.48,0.01-0.72,0.02c0-0.11,0.01-0.22,0.01-0.32c0-8.52-6.91-15.43-15.43-15.43
		c-3.68,0-7.06,1.29-9.72,3.45c-2.78-5.07-8.16-8.51-14.35-8.51c-9.03,0-16.35,7.32-16.35,16.35c0,1.55,0.22,3.04,0.62,4.46
		c-0.23-0.01-0.46-0.02-0.7-0.02c-7.53,0-13.63,6.1-13.63,13.63c0,7.53,6.1,13.63,13.63,13.63h56.65c7.53,0,13.63-6.1,13.63-13.63
		C264.78,182.41,258.67,176.31,251.15,176.31z"/>
	<path class="st1" d="M569.35,269.13c0.61-1.41,0.96-2.97,0.96-4.6c0-6.37-5.16-11.53-11.53-11.53c-0.93,0-1.83,0.11-2.69,0.32
		c0.14-0.76,0.22-1.54,0.22-2.34c0-7.04-5.71-12.75-12.75-12.75c-5.33,0-9.89,3.27-11.79,7.91c-1.93-2.32-4.85-3.8-8.11-3.8
		c-5.82,0-10.55,4.72-10.55,10.55c0,0.27,0.01,0.53,0.03,0.79c-1.22-0.44-2.53-0.68-3.9-0.68c-6.37,0-11.53,5.16-11.53,11.53
		c0,1.6,0.33,3.12,0.91,4.5c-5.45,0.21-9.8,4.7-9.8,10.2c0,5.64,4.57,10.21,10.21,10.21h68.83c5.64,0,10.21-4.57,10.21-10.21
		C578.07,274.1,574.28,269.86,569.35,269.13z"/>
	<path class="st1" d="M163.85,259.23c1.05-2.4,1.63-5.05,1.63-7.84c0-10.84-8.79-19.63-19.63-19.63c-1.58,0-3.12,0.19-4.59,0.54
		c0.24-1.29,0.37-2.62,0.37-3.98c0-11.99-9.72-21.71-21.71-21.71c-9.07,0-16.84,5.56-20.09,13.47c-3.3-3.96-8.26-6.48-13.81-6.48
		c-9.92,0-17.97,8.04-17.97,17.96c0,0.45,0.02,0.9,0.06,1.35c-2.07-0.75-4.31-1.15-6.64-1.15c-10.84,0-19.63,8.79-19.63,19.63
		c0,2.72,0.55,5.31,1.56,7.67c-9.28,0.36-16.7,8-16.7,17.37c0,9.6,7.79,17.39,17.39,17.39h117.23c9.6,0,17.39-7.78,17.39-17.39
		C178.7,267.69,172.25,260.46,163.85,259.23z"/>
	<path class="st1" d="M546.79,100.59c-0.24,0-0.48,0.01-0.72,0.02c0-0.11,0.01-0.22,0.01-0.32c0-8.52-6.91-15.43-15.43-15.43
		c-3.68,0-7.06,1.29-9.72,3.45c-2.78-5.07-8.16-8.51-14.35-8.51c-9.03,0-16.35,7.32-16.35,16.35c0,1.55,0.22,3.04,0.62,4.46
		c-0.23-0.01-0.46-0.02-0.7-0.02c-7.53,0-13.63,6.1-13.63,13.63c0,7.53,6.1,13.63,13.63,13.63h56.65c7.53,0,13.63-6.1,13.63-13.63
		C560.42,106.69,554.32,100.59,546.79,100.59z"/>
	<path class="st1" d="M404.87,77.58c-0.45,0-0.89,0.01-1.33,0.04c0.01-0.2,0.02-0.4,0.02-0.6c0-15.72-12.74-28.46-28.46-28.46
		c-6.79,0-13.03,2.38-17.92,6.36c-5.12-9.36-15.06-15.7-26.47-15.7c-16.66,0-30.16,13.5-30.16,30.16c0,2.86,0.41,5.62,1.15,8.23
		c-0.43-0.02-0.86-0.03-1.29-0.03c-13.88,0-25.13,11.25-25.13,25.13c0,13.88,11.25,25.13,25.13,25.13h104.48
		c13.88,0,25.13-11.25,25.13-25.13C430,88.83,418.75,77.58,404.87,77.58z"/>
	<path class="st1" d="M152.69,163.98c0.27-0.63,0.42-1.32,0.42-2.04c0-2.82-2.29-5.11-5.11-5.11c-0.41,0-0.81,0.05-1.2,0.14
		c0.06-0.34,0.1-0.68,0.1-1.04c0-3.12-2.53-5.66-5.66-5.66c-2.36,0-4.39,1.45-5.23,3.51c-0.86-1.03-2.15-1.69-3.6-1.69
		c-2.58,0-4.68,2.1-4.68,4.68c0,0.12,0.01,0.24,0.01,0.35c-0.54-0.19-1.12-0.3-1.73-0.3c-2.82,0-5.11,2.29-5.11,5.11
		c0,0.71,0.14,1.38,0.41,2c-2.42,0.09-4.35,2.08-4.35,4.52c0,2.5,2.03,4.53,4.53,4.53h30.54c2.5,0,4.53-2.03,4.53-4.53
		C156.55,166.19,154.87,164.3,152.69,163.98z"/>
	<path class="st1" d="M468.78,184.81c-0.14,0-0.27,0-0.41,0.01c0-0.06,0-0.12,0-0.18c0-4.84-3.92-8.76-8.76-8.76
		c-2.09,0-4.01,0.73-5.52,1.96c-1.58-2.88-4.64-4.83-8.15-4.83c-5.13,0-9.29,4.16-9.29,9.29c0,0.88,0.13,1.73,0.35,2.54
		c-0.13-0.01-0.26-0.01-0.4-0.01c-4.27,0-7.74,3.46-7.74,7.74c0,4.27,3.46,7.74,7.74,7.74h32.17c4.27,0,7.74-3.46,7.74-7.74
		C476.52,188.27,473.05,184.81,468.78,184.81z"/>
	<path class="st1" d="M46.63,29.49c-0.1,0-0.2,0-0.29,0.01c0-0.04,0-0.09,0-0.13c0-3.47-2.81-6.28-6.28-6.28
		c-1.5,0-2.87,0.53-3.95,1.4c-1.13-2.06-3.32-3.46-5.84-3.46c-3.67,0-6.65,2.98-6.65,6.65c0,0.63,0.09,1.24,0.25,1.82
		c-0.09,0-0.19-0.01-0.28-0.01c-3.06,0-5.54,2.48-5.54,5.54c0,3.06,2.48,5.54,5.54,5.54h23.05c3.06,0,5.54-2.48,5.54-5.54
		C52.18,31.97,49.7,29.49,46.63,29.49z"/>
	<path class="st1" d="M504.75,47.07c0.27-0.63,0.42-1.32,0.42-2.04c0-2.82-2.29-5.11-5.11-5.11c-0.41,0-0.81,0.05-1.2,0.14
		c0.06-0.34,0.1-0.68,0.1-1.04c0-3.12-2.53-5.66-5.66-5.66c-2.36,0-4.39,1.45-5.23,3.51c-0.86-1.03-2.15-1.69-3.6-1.69
		c-2.58,0-4.68,2.1-4.68,4.68c0,0.12,0.01,0.24,0.01,0.35c-0.54-0.19-1.12-0.3-1.73-0.3c-2.82,0-5.11,2.29-5.11,5.11
		c0,0.71,0.14,1.38,0.41,2c-2.42,0.09-4.35,2.08-4.35,4.52c0,2.5,2.03,4.53,4.53,4.53h30.54c2.5,0,4.53-2.03,4.53-4.53
		C508.62,49.28,506.94,47.39,504.75,47.07z"/>
</g>
</svg>
