<?xml version="1.0" encoding="utf-8"?>
<!-- Generator: Adobe Illustrator 25.2.1, SVG Export Plug-In . SVG Version: 6.00 Build 0)  -->
<svg version="1.1" id="Layer_1" xmlns="http://www.w3.org/2000/svg" xmlns:xlink="http://www.w3.org/1999/xlink" x="0px" y="0px"
	 viewBox="0 0 603 603" style="enable-background:new 0 0 603 603;" xml:space="preserve">
<style type="text/css">
	.st0{fill:#A5D2D7;}
	.st1{fill:#37B9C6;}
	.st2{fill:#E9E9E9;}
	.st3{fill:#009C91;}
	.st4{fill:#31B295;}
	.st5{fill:#F37151;}
	.st6{fill:#F79F88;}
	.st7{fill:#BB9E6F;}
</style>
<g>
	<rect x="0" class="st0" width="603" height="320.54"/>
	<rect y="303.5" class="st1" width="603" height="299.5"/>
	<path class="st2" d="M172.17,339.28c0,3.03-3.91,5.48-8.73,5.48H36.32c-4.82,0-8.73-2.46-8.73-5.48l0,0c0-3.03,3.91-5.48,8.73-5.48
		h127.11C168.26,333.8,172.17,336.26,172.17,339.28L172.17,339.28z"/>
	<path class="st2" d="M595.86,330.09c0,3.56-2.89,6.45-6.45,6.45H453.57c-3.56,0-6.45-2.89-6.45-6.45l0,0
		c0-3.56,2.89-6.45,6.45-6.45h135.85c3.56,0,5.76,2.89,5.76,6.45H595.86z"/>
	<polygon class="st3" points="404.52,354.29 320.13,354.29 362.32,280.12 404.52,205.95 446.71,280.12 488.91,354.29 	"/>
	<polygon class="st4" points="404.52,334.56 478.47,334.56 441.5,270.26 404.52,205.95 	"/>
	<polygon class="st3" points="314.15,342.45 215.02,342.45 264.59,253.78 314.15,165.11 363.72,253.78 413.29,342.45 	"/>
	<polygon class="st4" points="314.15,339.04 413.29,339.04 363.72,252.07 314.15,165.11 	"/>
	<polygon class="st3" points="225.34,348.59 126.21,348.59 175.77,280.51 225.34,212.42 274.91,280.51 324.48,348.59 	"/>
	<polygon class="st4" points="225.34,348.59 324.48,348.59 274.91,280.51 225.34,212.42 	"/>
	<path class="st5" d="M73.83,376.29c0,0-17.34,29.78,3.75,35.98c21.09,6.2,242.28,16.63,452.83,0c9.22-0.73,27.29-12.41,8.68-35.98
		c-4.2-5.32-74-6.55-158.31-6.05c-5.62,0.03-11.31,0.08-17.04,0.12c-5.74,0.77-11.52-0.34-17.34,0.17
		c-5.82,0.24-11.67-0.89-17.54,0.2c-5.87-0.11-11.76,0.15-17.66,0.24C193.32,372.65,73.83,376.29,73.83,376.29z"/>
	<path class="st6" d="M546.39,400.16c0,0,6.64-26.09-14.95-32.29c-21.59-6.2-220.44-23.53-441.4-3.68
		c-9.43,0.85-22.54,7.29-23.63,34.75c-0.18,4.61,129.05,8.45,253.45,7.54C435.21,405.62,546.39,400.16,546.39,400.16z"/>
	<path class="st7" d="M546.39,381.74c0,0,2.96-16.26-18.63-22.47c-21.59-6.2-201.14-8.36-421.75-3.68
		c-9.47,0.2-29.95-1.77-34.68,21.24c-0.54,2.61,2.41,9.47,20.33,10.88c2.99,0.24,13.55-7.93,16.95-4.25
		c3.39-1.74,6.98-6.68,10.76,0.58c3.77-10.06,7.73-4.37,11.84,0.5c4.12,9.46,8.41-8.13,12.84,0.42c4.44-5.85,9.03,4.13,13.75,0.35
		c4.72,6.61,9.59,0.2,14.57,0.28c8.72,0.14,17.81,5.17,27.19,5.25c4.69,0.04,9.45-4.84,14.28-4.81c4.83-0.59,9.71-3.62,14.65,0.06
		c4.94-3.62,9.93,2.66,14.97,0.02c5.04-2.44,10.11-2.05,15.23-0.02c5.11-2.5,10.25-3.36,15.42-0.05c5.17-1.14,10.35-1.82,15.55-0.08
		c5.2-0.03,10.41-0.07,15.63-0.11c3.26-0.02,6.53-0.05,9.79-0.08c3.26-1.96,6.52-1.41,9.78-0.09c3.26,0.16,6.51,2.9,9.76-0.1
		c3.25,1.78,6.49-1.51,9.72-0.11c3.23-0.44,6.45,0.75,9.67-0.11c3.21,2.68,6.41,5.87,9.6,4.79c3.19-0.04,6.36-5,9.51-5.04
		c5.52-0.08,11-0.16,16.4-0.24c5.41,1.38,10.76,2.34,16.02-0.25c5.27-3.05,10.46,11.32,15.56-0.26c5.1,7,10.12,8.11,15.03-0.26
		c4.91-5.1,9.72-4.88,14.41-0.26c4.69,1.86,9.27-3.19,13.71-0.26c4.45-1.18,8.76,1.65,12.94-0.26c2.09-1.51,4.14-1.43,6.15-1.05
		c2.01,0.39,3.99,1.08,5.93,0.79c1.94,0.9,3.84,1.96,5.69-0.12c1.86-2.36,3.67-3.75,5.45-0.12c5.68-1.43,10.93,3.38,15.69,3.33
		c4.76-0.21,9.03-6.71,12.77-3.98c3.73-0.48,6.92-3.65,9.52-0.23c2.6-0.06,4.6-0.11,5.95-0.15
		C545.69,381.76,546.39,381.74,546.39,381.74z"/>
	<path class="st3" d="M192.02,314.11c-57.7,0-69.42,26.78-104.48,44.43H296.5C268.72,345.36,249.72,314.11,192.02,314.11z"/>
	<path class="st3" d="M386.26,299.04c-77.07,0-92.73,35.78-139.55,59.34l279.11,1.23C488.7,342,463.33,299.04,386.26,299.04z"/>
	<path class="st3" d="M386.25,358.37l139.55,1.23c-37.11-17.6-62.48-60.57-139.55-60.57h0V358.37z"/>
	<path class="st3" d="M192.02,314.11v44.43H296.5C268.72,345.36,249.72,314.11,192.02,314.11z"/>
	<path class="st7" d="M87.57,358.21c0,0,0.03,9.08,12.7,9.86c20.13,1.25,209.1,5.4,414.99,0.84c8.79-0.19,11.18-2.9,12.19-9.2
		c0.17-1.06-116.57-0.71-232.48-0.5C187.49,359.41,87.57,358.21,87.57,358.21z"/>
	<path class="st2" d="M170.31,57.81c-0.35,0-0.7,0.01-1.05,0.03c0-0.16,0.01-0.31,0.01-0.47c0-12.38-10.04-22.42-22.42-22.42
		c-5.35,0-10.26,1.88-14.12,5.01c-4.03-7.37-11.86-12.37-20.85-12.37c-13.12,0-23.76,10.64-23.76,23.76c0,2.25,0.32,4.42,0.9,6.49
		c-0.34-0.02-0.68-0.03-1.02-0.03c-10.93,0-19.8,8.86-19.8,19.8c0,10.93,8.86,19.8,19.8,19.8h82.3c10.93,0,19.8-8.86,19.8-19.8
		C190.11,66.67,181.24,57.81,170.31,57.81z"/>
	<path class="st2" d="M546.97,120.21c0.86-1.98,1.35-4.17,1.35-6.47c0-8.95-7.25-16.2-16.2-16.2c-1.3,0-2.57,0.16-3.79,0.45
		c0.2-1.06,0.31-2.16,0.31-3.28c0-9.9-8.02-17.92-17.92-17.92c-7.49,0-13.9,4.59-16.58,11.11c-2.72-3.27-6.82-5.35-11.4-5.35
		c-8.19,0-14.83,6.64-14.83,14.83c0,0.37,0.02,0.74,0.05,1.11c-1.71-0.62-3.56-0.95-5.48-0.95c-8.95,0-16.2,7.25-16.2,16.2
		c0,2.25,0.46,4.38,1.28,6.33c-7.66,0.3-13.78,6.6-13.78,14.34c0,7.93,6.43,14.35,14.35,14.35h96.75c7.92,0,14.35-6.42,14.35-14.35
		C559.22,127.19,553.9,121.23,546.97,120.21z"/>
	<g>
		<path class="st7" d="M481.66,306.12c-0.43-2.14-0.84-4.31-1.52-6.41l-1.85-6.39c-0.77-2.08-1.54-4.15-2.3-6.22
			c-0.7-2.09-1.65-4.06-2.53-6.03c0.53-3.04,1.71-5.94,4.87-6.52c0.18-0.03,0.33-0.1,0.44-0.19c0.6,0.93,1.2,1.87,1.83,2.81
			c1.24,1.93,2.56,3.86,3.64,5.95c1.14,2.06,2.3,4.14,3.46,6.23l3.05,6.54c1.09,2.18,1.9,4.45,2.73,6.73
			c0.79,2.29,1.79,4.52,2.4,6.85c1.28,4.65,2.65,9.25,3.28,13.88c0.34,2.3,0.94,4.55,1.03,6.81c0.16,2.26,0.33,4.48,0.48,6.63
			c0.05,1.08,0.1,5.3,0.07,6.32c-0.08,2.06-0.15,4.04-0.22,5.95c0,1.93-0.39,3.72-0.61,5.45c-0.26,1.73-1.01,6.77-1.19,7.64h-22.49
			c0.22-0.5,0.46-1.04,0.72-1.63c0.69-1.65,1.77-3.61,2.38-6.04c0.37-1.2,0.78-2.48,1.19-3.83c0.39-1.36,0.98-2.76,1.19-4.3
			c0.29-1.54,0.59-3.13,0.91-4.79c0.16-0.84,0.66-4.3,0.75-5.19c0.15-1.81,0.3-3.67,0.46-5.58c0.24-1.91-0.01-3.87,0.01-5.88
			c0.09-4.03-0.51-8.17-0.99-12.43C482.65,310.36,482.05,308.27,481.66,306.12z"/>
		<path class="st3" d="M424.75,257.46l-3.41,5.15c-11.82-1.9-19.11-2.5-19.11-2.5s22.95-19.06,47.22-14.02
			c24.63,5.12,29.92,33.4,29.92,33.4c-4.34-2.9-10.37-5.44-17.15-7.65l0.23-6.54l-2.18,5.92c-4.79-1.49-9.19-2.66-14.32-3.84
			l-0.5-7.41l-2.52,6.74c-6.38-1.4-12.71-2.57-18.41-3.51L424.75,257.46z"/>
		<path class="st4" d="M522.33,245.01l4.67,4.04c10.87-5.02,17.72-7.56,17.72-7.56s-27.24-12.17-49.25-0.77
			c-22.34,11.57-19.81,40.23-19.81,40.23c3.4-3.96,8.52-8.03,14.45-11.99l-1.98-6.24l3.7,5.12c4.21-2.72,8.13-5.04,12.76-7.56
			l-1.52-7.27l4.25,5.82c5.76-3.07,11.55-5.9,16.79-8.35L522.33,245.01z"/>
		<path class="st3" d="M532.01,295.17l-0.42,6.17c10.55,5.66,16.71,9.61,16.71,9.61s-6.67-29.08-29.02-39.8
			c-22.68-10.88-44.05,8.39-44.05,8.39c5.21,0.33,11.54,1.97,18.27,4.33l3.79-5.34l-1.86,6.03c4.71,1.73,8.92,3.46,13.71,5.64
			l4.89-5.59l-2.09,6.89c5.92,2.76,11.66,5.67,16.77,8.38L532.01,295.17z"/>
		<g>
			<path class="st6" d="M482.22,287.54h4.15c0.6,0,1.1-0.49,1.1-1.09c0-0.6-5.24-1.1-5.24-1.1c-0.6,0-1.09,0.49-1.09,1.1
				C481.13,287.05,481.62,287.54,482.22,287.54z"/>
		</g>
		<g>
			<path class="st6" d="M484.24,292.65h4.19c0.6,0,1.09-0.49,1.09-1.09c0-0.6-0.49-1.09-1.09-1.09h-4.19c-0.6,0-1.1,0.49-1.1,1.09
				C483.14,292.16,483.63,292.65,484.24,292.65z"/>
		</g>
		<g>
			<path class="st6" d="M485.87,297.38h5.11c0.6,0,1.1-0.49,1.1-1.09c0-0.6-0.49-1.09-1.1-1.09h-5.11c-0.6,0-1.09,0.49-1.09,1.09
				C484.78,296.9,485.27,297.38,485.87,297.38z"/>
		</g>
		<g>
			<path class="st6" d="M487.06,302.49h5.74c0.6,0,1.09-0.49,1.09-1.09c0-0.6-0.49-1.09-1.09-1.09h-5.74c-0.6,0-1.09,0.49-1.09,1.09
				C485.97,302,486.46,302.49,487.06,302.49z"/>
		</g>
		<g>
			<path class="st6" d="M488.56,307.96h6.25c0.6,0,1.09-0.49,1.09-1.09c0-0.6-0.49-1.09-1.09-1.09h-6.25c-0.6,0-1.09,0.49-1.09,1.09
				C487.47,307.47,487.96,307.96,488.56,307.96z"/>
		</g>
		<g>
			<path class="st6" d="M489.13,312.76h6.95c0.6,0,1.09-0.49,1.09-1.09c0-0.6-0.49-1.1-1.09-1.1h-6.95c-0.6,0-1.09,0.49-1.09,1.1
				C488.04,312.27,488.53,312.76,489.13,312.76z"/>
		</g>
		<g>
			<path class="st6" d="M491.32,318.63h6.51c0.6,0,1.1-0.49,1.1-1.09c0-0.6-0.49-1.09-1.1-1.09h-6.51c-0.6,0-1.09,0.49-1.09,1.09
				C490.23,318.14,490.72,318.63,491.32,318.63z"/>
		</g>
		<g>
			<path class="st6" d="M492.81,325.09h6.48c0.61,0,1.1-0.49,1.1-1.09c0-0.6-0.49-1.1-1.1-1.1h-6.48c-0.6,0-1.09,0.49-1.09,1.1
				C491.71,324.6,492.2,325.09,492.81,325.09z"/>
		</g>
		<g>
			<path class="st6" d="M492.81,331.27h7.38c0.6,0,1.09-0.49,1.09-1.09c0-0.61-0.49-1.09-1.09-1.09h-7.38
				c-0.6,0-1.09,0.49-1.09,1.09C491.71,330.78,492.2,331.27,492.81,331.27z"/>
		</g>
		<g>
			<path class="st6" d="M492.81,337.3h8.2c0.6,0,1.09-0.49,1.09-1.09c0-0.6-0.49-1.09-1.09-1.09h-8.2c-0.6,0-1.09,0.49-1.09,1.09
				C491.71,336.81,492.2,337.3,492.81,337.3z"/>
		</g>
		<g>
			<path class="st6" d="M491.32,342.95h9.69c0.6,0,1.09-0.49,1.09-1.09c0-0.6-0.49-1.09-1.09-1.09h-9.69c-0.6,0-1.09,0.49-1.09,1.09
				C490.23,342.46,490.72,342.95,491.32,342.95z"/>
		</g>
		<g>
			<path class="st6" d="M490.25,349.51h10.75c0.6,0,1.09-0.49,1.09-1.09c0-0.6-0.49-1.1-1.09-1.1h-10.75c-0.6,0-1.1,0.49-1.1,1.1
				C489.16,349.03,489.65,349.51,490.25,349.51z"/>
		</g>
		<g>
			<path class="st6" d="M488.07,356.08h11.95c0.6,0,1.09-0.49,1.09-1.09c0-0.6-0.49-1.09-1.09-1.09h-11.95
				c-0.6,0-1.09,0.49-1.09,1.09C486.97,355.59,487.46,356.08,488.07,356.08z"/>
		</g>
		<path class="st4" d="M429.29,303.87l1.37,6.03c-9.54,7.23-15.01,12.08-15.01,12.08s2.08-29.76,22.49-43.82
			c20.72-14.27,44.82,1.45,44.82,1.45c-5.09,1.14-11.09,3.74-17.38,7.11l-4.58-4.69l2.77,5.67c-4.39,2.44-8.28,4.8-12.67,7.7
			l-5.7-4.76l3.13,6.48c-5.42,3.64-10.64,7.41-15.26,10.88L429.29,303.87z"/>
	</g>
	<g>
		<path class="st7" d="M132.46,294.1c0.53-2.69,1.05-5.41,1.91-8.04l2.32-8.01c0.97-2.61,1.93-5.21,2.89-7.8
			c0.88-2.62,2.07-5.09,3.18-7.57c-0.67-3.82-2.15-7.45-6.11-8.17c-0.23-0.04-0.41-0.13-0.56-0.23c-0.75,1.17-1.5,2.35-2.29,3.52
			c-1.56,2.42-3.21,4.84-4.57,7.46c-1.44,2.59-2.89,5.2-4.34,7.82l-3.82,8.21c-1.36,2.73-2.38,5.59-3.42,8.44
			c-0.99,2.87-2.25,5.67-3.01,8.59c-1.61,5.83-3.33,11.6-4.12,17.41c-0.42,2.89-1.18,5.71-1.29,8.54c-0.2,2.84-0.41,5.62-0.6,8.32
			c-0.07,1.36-0.13,6.65-0.09,7.93c0.1,2.58,0.18,5.07,0.27,7.46c-0.01,2.41,0.5,4.66,0.77,6.83c0.33,2.17,1.26,8.49,1.49,9.58
			h28.21c-0.28-0.63-0.57-1.3-0.9-2.05c-0.87-2.08-2.22-4.53-2.98-7.57c-0.47-1.51-0.97-3.11-1.49-4.8c-0.49-1.7-1.23-3.47-1.49-5.4
			c-0.36-1.93-0.74-3.93-1.15-6c-0.2-1.05-0.82-5.39-0.94-6.52c-0.18-2.28-0.38-4.61-0.58-6.99c-0.3-2.4,0.02-4.86-0.02-7.37
			c-0.11-5.05,0.64-10.24,1.24-15.59C131.23,299.42,131.98,296.8,132.46,294.1z"/>
		<path class="st4" d="M199.9,223.11l5.01,5.92c14.44-4.11,23.43-5.93,23.43-5.93s-31.39-20.37-60.88-10.52
			c-29.93,10-32.36,46-32.36,46c4.98-4.24,12.11-8.3,20.23-12.05l-1.24-8.12l3.59,7.06c5.75-2.56,11.06-4.67,17.27-6.89l-0.47-9.3
			l4.14,8.03c7.74-2.69,15.45-5.07,22.42-7.08L199.9,223.11z"/>
		<path class="st3" d="M81.46,217.44l-5.86,5.07c-13.64-6.3-22.23-9.49-22.23-9.49s34.16-15.26,61.78-0.96
			c28.02,14.51,24.85,50.46,24.85,50.46c-4.27-4.96-10.68-10.07-18.12-15.04l2.49-7.83l-4.64,6.42c-5.28-3.42-10.2-6.33-16-9.48
			l1.9-9.12l-5.33,7.29c-7.23-3.85-14.48-7.4-21.05-10.47L81.46,217.44z"/>
		<path class="st4" d="M162.41,301.89l-4.09,3.77c3.38,10.23,4.96,16.62,4.96,16.62s13.66-23.12,5.71-43.97
			c-8.07-21.15-33.96-21.82-33.96-21.82c3.19,3.45,6.32,8.43,9.25,14.14l5.78-1.14l-4.95,2.78c2.01,4.04,3.68,7.79,5.46,12.18
			l6.66-0.62l-5.63,3.21c2.16,5.47,4.1,10.93,5.76,15.86L162.41,301.89z"/>
		<path class="st3" d="M77.31,277.16l0.46,6.87c-11.76,6.31-18.62,10.71-18.62,10.71s7.44-32.41,32.35-44.35
			c25.27-12.12,49.09,9.35,49.09,9.35c-5.81,0.37-12.86,2.19-20.36,4.82l-4.23-5.95l2.07,6.72c-5.25,1.92-9.94,3.86-15.28,6.29
			l-5.45-6.23l2.32,7.68c-6.6,3.07-13,6.32-18.69,9.34L77.31,277.16z"/>
		<g>
			<path class="st6" d="M131.76,270.8h-5.21c-0.76,0-1.37-0.61-1.37-1.37s0.61-1.37,1.37-1.37h5.21c0.76,0,1.37,0.61,1.37,1.37
				S132.52,270.8,131.76,270.8z"/>
		</g>
		<g>
			<path class="st6" d="M129.24,277.2h-5.26c-0.76,0-1.37-0.61-1.37-1.37c0-0.76,0.61-1.37,1.37-1.37h5.26
				c0.76,0,1.37,0.61,1.37,1.37C130.61,276.58,129.99,277.2,129.24,277.2z"/>
		</g>
		<g>
			<path class="st6" d="M127.19,283.14h-6.41c-0.76,0-1.37-0.61-1.37-1.37c0-0.76,0.61-1.37,1.37-1.37h6.41
				c0.76,0,1.37,0.61,1.37,1.37C128.56,282.53,127.95,283.14,127.19,283.14z"/>
		</g>
		<g>
			<path class="st6" d="M125.69,289.54h-7.2c-0.76,0-1.37-0.62-1.37-1.37c0-0.76,0.61-1.37,1.37-1.37h7.2
				c0.76,0,1.37,0.61,1.37,1.37C127.06,288.93,126.45,289.54,125.69,289.54z"/>
		</g>
		<g>
			<path class="st6" d="M123.81,296.4h-7.84c-0.76,0-1.37-0.61-1.37-1.37c0-0.76,0.61-1.37,1.37-1.37h7.84
				c0.76,0,1.37,0.61,1.37,1.37C125.18,295.79,124.57,296.4,123.81,296.4z"/>
		</g>
		<g>
			<path class="st6" d="M123.09,302.43h-8.72c-0.76,0-1.37-0.62-1.37-1.37c0-0.76,0.61-1.37,1.37-1.37h8.72
				c0.76,0,1.37,0.61,1.37,1.37C124.47,301.81,123.85,302.43,123.09,302.43z"/>
		</g>
		<g>
			<path class="st6" d="M120.35,309.79h-8.17c-0.76,0-1.37-0.61-1.37-1.37c0-0.76,0.61-1.37,1.37-1.37h8.17
				c0.76,0,1.37,0.61,1.37,1.37C121.72,309.18,121.11,309.79,120.35,309.79z"/>
		</g>
		<g>
			<path class="st6" d="M118.49,317.89h-8.14c-0.76,0-1.37-0.62-1.37-1.37c0-0.76,0.61-1.37,1.37-1.37h8.14
				c0.76,0,1.37,0.61,1.37,1.37C119.86,317.28,119.25,317.89,118.49,317.89z"/>
		</g>
		<g>
			<path class="st6" d="M118.49,325.64h-9.26c-0.76,0-1.37-0.61-1.37-1.37c0-0.76,0.61-1.37,1.37-1.37h9.26
				c0.76,0,1.37,0.61,1.37,1.37C119.86,325.03,119.25,325.64,118.49,325.64z"/>
		</g>
		<g>
			<path class="st6" d="M118.49,333.21H108.2c-0.76,0-1.37-0.62-1.37-1.37c0-0.76,0.61-1.37,1.37-1.37h10.29
				c0.76,0,1.37,0.61,1.37,1.37C119.86,332.6,119.25,333.21,118.49,333.21z"/>
		</g>
		<g>
			<path class="st6" d="M120.35,340.3H108.2c-0.76,0-1.37-0.62-1.37-1.37c0-0.76,0.61-1.37,1.37-1.37h12.15
				c0.76,0,1.37,0.61,1.37,1.37C121.72,339.68,121.11,340.3,120.35,340.3z"/>
		</g>
		<g>
			<path class="st6" d="M121.69,348.53H108.2c-0.76,0-1.37-0.61-1.37-1.37c0-0.76,0.61-1.37,1.37-1.37h13.49
				c0.76,0,1.37,0.61,1.37,1.37C123.06,347.91,122.45,348.53,121.69,348.53z"/>
		</g>
		<path class="st4" d="M205.29,282.23l-1.1,7.67c12.66,8.08,19.98,13.6,19.98,13.6s-5.59-37-32.53-52.53
			c-27.34-15.76-55.89,6.31-55.89,6.31c6.48,0.91,14.25,3.55,22.44,7.14l5.25-6.32l-2.9,7.37c5.73,2.61,10.83,5.17,16.62,8.35
			l6.65-6.53l-3.26,8.42c7.14,4.01,14.05,8.2,20.18,12.07L205.29,282.23z"/>
		<g>
			<path class="st6" d="M124.43,356.76h-14.99c-0.76,0-1.37-0.61-1.37-1.37c0-0.76,0.61-1.37,1.37-1.37h14.99
				c0.76,0,1.37,0.62,1.37,1.37C125.81,356.14,125.19,356.76,124.43,356.76z"/>
		</g>
	</g>
	<path class="st2" d="M474.52,440.01c0,3.03-3.91,5.48-8.73,5.48H338.68c-4.82,0-8.73-2.46-8.73-5.48l0,0
		c0-3.03,3.91-5.48,8.73-5.48h127.11C470.61,434.53,474.52,436.98,474.52,440.01L474.52,440.01z"/>
	<path class="st2" d="M280.89,524.78c0,5.24-4.25,9.49-9.49,9.49H71.54c-5.24,0-9.49-4.25-9.49-9.49l0,0c0-5.24,4.25-9.49,9.49-9.49
		H271.4c5.24,0,8.47,4.25,8.47,9.49H280.89z"/>
	<path class="st2" d="M343.68,468.77c0,5.24-4.25,9.49-9.49,9.49H196.12c-5.24,0-9.49-4.25-9.49-9.49l0,0
		c0-5.24,4.25-9.49,9.49-9.49h138.08C339.43,459.28,343.68,463.53,343.68,468.77L343.68,468.77z"/>
	<path class="st2" d="M575.66,520.35c0,3.56-2.89,6.45-6.45,6.45H433.37c-3.56,0-6.45-2.89-6.45-6.45l0,0
		c0-3.56,2.89-6.45,6.45-6.45h135.85c3.56,0,5.76,2.89,5.76,6.45H575.66z"/>
	<path class="st2" d="M536.34,551.85c0,5.24-4.25,9.49-9.49,9.49H326.99c-5.24,0-9.49-4.25-9.49-9.49l0,0
		c0-5.24,4.25-9.49,9.49-9.49h199.87c5.24,0,8.47,4.25,8.47,9.49H536.34z"/>
	<path class="st2" d="M159.49,567.64c0,3.03-3.91,5.48-8.73,5.48H23.64c-4.82,0-8.73-2.46-8.73-5.48l0,0c0-3.03,3.91-5.48,8.73-5.48
		h127.11C155.58,562.16,159.49,564.62,159.49,567.64L159.49,567.64z"/>
	<path class="st2" d="M157.3,430.57c0,3.56-2.89,6.45-6.45,6.45H15c-3.56,0-6.45-2.89-6.45-6.45l0,0c0-3.56,2.89-6.45,6.45-6.45
		h135.85c3.56,0,5.76,2.89,5.76,6.45H157.3z"/>
	<path class="st2" d="M599.86,468.77c0,3.03-3.91,5.48-8.73,5.48H464.01c-4.82,0-8.73-2.46-8.73-5.48l0,0
		c0-3.03,3.91-5.48,8.73-5.48h127.11C595.95,463.29,599.86,465.74,599.86,468.77L599.86,468.77z"/>
	<path class="st2" d="M278.08,150.99c-0.24,0-0.48,0.01-0.72,0.02c0-0.11,0.01-0.21,0.01-0.32c0-8.45-6.85-15.3-15.3-15.3
		c-3.65,0-7,1.28-9.64,3.42c-2.75-5.03-8.09-8.44-14.23-8.44c-8.96,0-16.22,7.26-16.22,16.22c0,1.54,0.22,3.02,0.62,4.43
		c-0.23-0.01-0.46-0.02-0.69-0.02c-7.46,0-13.51,6.05-13.51,13.51c0,7.46,6.05,13.51,13.51,13.51h56.17
		c7.46,0,13.51-6.05,13.51-13.51C291.59,157.04,285.54,150.99,278.08,150.99z"/>
</g>
</svg>
