<?xml version="1.0" encoding="utf-8"?>
<!-- Generator: Adobe Illustrator 25.2.1, SVG Export Plug-In . SVG Version: 6.00 Build 0)  -->
<svg version="1.1" id="Layer_1" xmlns="http://www.w3.org/2000/svg" xmlns:xlink="http://www.w3.org/1999/xlink" x="0px" y="0px"
	 viewBox="0 0 612 305.1" style="enable-background:new 0 0 612 305.1;" xml:space="preserve">
<style type="text/css">
	.st0{fill:#F79F88;}
	.st1{fill:#BB9E6F;}
	.st2{fill:#31B295;}
	.st3{fill:#009C91;}
</style>
<rect class="st0" width="612" height="305.1"/>
<g>
	<path class="st1" d="M99.92,102.43c0.61-3.09,1.21-6.22,2.19-9.24l2.67-9.2c1.11-3,2.22-5.99,3.32-8.96
		c1.02-3.01,2.38-5.85,3.65-8.7c-0.77-4.39-2.47-8.56-7.02-9.39c-0.26-0.05-0.47-0.14-0.64-0.27c-0.87,1.34-1.72,2.7-2.63,4.05
		c-1.79,2.78-3.69,5.57-5.25,8.57c-1.65,2.98-3.32,5.97-4.98,8.99l-4.39,9.43c-1.56,3.13-2.73,6.42-3.94,9.7
		c-1.14,3.3-2.58,6.51-3.46,9.87c-1.85,6.7-3.82,13.33-4.73,20c-0.49,3.32-1.36,6.56-1.48,9.82c-0.23,3.26-0.47,6.45-0.69,9.56
		c-0.08,1.56-0.15,7.64-0.1,9.11c0.11,2.96,0.21,5.83,0.31,8.58c-0.01,2.77,0.57,5.36,0.88,7.85c0.38,2.49,1.45,9.76,1.71,11.01
		h32.41c-0.32-0.72-0.66-1.49-1.04-2.35c-1-2.39-2.55-5.2-3.43-8.7c-0.54-1.73-1.12-3.57-1.71-5.51c-0.56-1.96-1.41-3.98-1.71-6.21
		c-0.42-2.21-0.86-4.52-1.32-6.9c-0.23-1.21-0.94-6.2-1.08-7.49c-0.21-2.62-0.43-5.3-0.66-8.03c-0.35-2.76,0.02-5.58-0.02-8.47
		c-0.13-5.8,0.73-11.77,1.43-17.91C98.51,108.54,99.37,105.53,99.92,102.43z"/>
	<path class="st2" d="M177.42,20.85l5.75,6.8c16.6-4.72,26.93-6.81,26.93-6.81S174.03-2.57,140.14,8.75
		c-34.39,11.49-37.19,52.86-37.19,52.86c5.72-4.88,13.92-9.54,23.25-13.85l-1.43-9.33l4.12,8.11c6.61-2.94,12.71-5.37,19.85-7.92
		l-0.54-10.69l4.75,9.23c8.89-3.09,17.76-5.83,25.77-8.14L177.42,20.85z"/>
	<path class="st3" d="M41.31,14.34l-6.74,5.83C18.9,12.93,9.02,9.26,9.02,9.26S48.28-8.28,80.01,8.16
		c32.2,16.67,28.56,57.98,28.56,57.98c-4.9-5.71-12.27-11.58-20.83-17.28l2.86-9l-5.33,7.37c-6.07-3.93-11.72-7.27-18.39-10.9
		l2.19-10.48l-6.13,8.38c-8.31-4.42-16.64-8.51-24.2-12.03L41.31,14.34z"/>
	<path class="st2" d="M134.33,111.38l-4.7,4.33c3.88,11.76,5.7,19.1,5.7,19.1s15.7-26.57,6.56-50.53
		c-9.27-24.31-39.02-25.07-39.02-25.07c3.67,3.96,7.26,9.69,10.63,16.25l6.65-1.31l-5.69,3.2c2.31,4.65,4.23,8.95,6.28,14l7.65-0.71
		l-6.47,3.69c2.48,6.28,4.71,12.56,6.61,18.23L134.33,111.38z"/>
	<path class="st3" d="M36.54,82.97l0.53,7.9c-13.51,7.25-21.4,12.3-21.4,12.3s8.55-37.24,37.17-50.97
		c29.04-13.93,56.42,10.74,56.42,10.74c-6.67,0.43-14.78,2.52-23.4,5.54l-4.86-6.84l2.38,7.72c-6.03,2.21-11.43,4.43-17.56,7.22
		l-6.27-7.15l2.67,8.83c-7.58,3.53-14.93,7.26-21.47,10.74L36.54,82.97z"/>
	<g>
		<path class="st0" d="M99.12,75.65h-5.98c-0.87,0-1.58-0.71-1.58-1.58s0.71-1.58,1.58-1.58h5.98c0.87,0,1.58,0.71,1.58,1.58
			S99.99,75.65,99.12,75.65z"/>
	</g>
	<g>
		<path class="st0" d="M96.21,83h-6.04c-0.87,0-1.58-0.71-1.58-1.58c0-0.87,0.7-1.58,1.58-1.58h6.04c0.87,0,1.58,0.71,1.58,1.58
			C97.79,82.3,97.08,83,96.21,83z"/>
	</g>
	<g>
		<path class="st0" d="M93.86,89.83h-7.37c-0.87,0-1.58-0.71-1.58-1.58c0-0.87,0.7-1.58,1.58-1.58h7.37c0.87,0,1.58,0.71,1.58,1.58
			C95.44,89.13,94.73,89.83,93.86,89.83z"/>
	</g>
	<g>
		<path class="st0" d="M92.14,97.19h-8.28c-0.87,0-1.58-0.71-1.58-1.58c0-0.87,0.7-1.58,1.58-1.58h8.28c0.87,0,1.58,0.71,1.58,1.58
			C93.72,96.48,93.01,97.19,92.14,97.19z"/>
	</g>
	<g>
		<path class="st0" d="M89.98,105.07h-9.01c-0.87,0-1.58-0.71-1.58-1.58c0-0.87,0.7-1.58,1.58-1.58h9.01c0.87,0,1.58,0.71,1.58,1.58
			C91.56,104.37,90.85,105.07,89.98,105.07z"/>
	</g>
	<g>
		<path class="st0" d="M89.16,112H79.14c-0.87,0-1.58-0.71-1.58-1.58c0-0.87,0.71-1.58,1.58-1.58h10.02c0.87,0,1.58,0.71,1.58,1.58
			C90.73,111.29,90.03,112,89.16,112z"/>
	</g>
	<g>
		<path class="st0" d="M86,120.46h-9.39c-0.87,0-1.58-0.7-1.58-1.58c0-0.87,0.71-1.58,1.58-1.58H86c0.87,0,1.58,0.71,1.58,1.58
			C87.58,119.75,86.88,120.46,86,120.46z"/>
	</g>
	<g>
		<path class="st0" d="M83.87,129.77h-9.35c-0.87,0-1.58-0.71-1.58-1.58c0-0.87,0.71-1.58,1.58-1.58h9.35
			c0.87,0,1.58,0.71,1.58,1.58C85.44,129.06,84.74,129.77,83.87,129.77z"/>
	</g>
	<g>
		<path class="st0" d="M83.87,138.67H73.22c-0.87,0-1.58-0.7-1.58-1.58c0-0.87,0.7-1.58,1.58-1.58h10.64c0.87,0,1.58,0.71,1.58,1.58
			C85.44,137.97,84.74,138.67,83.87,138.67z"/>
	</g>
	<g>
		<path class="st0" d="M83.87,147.37H72.04c-0.87,0-1.58-0.71-1.58-1.58c0-0.87,0.7-1.58,1.58-1.58h11.82c0.87,0,1.58,0.7,1.58,1.58
			C85.44,146.66,84.74,147.37,83.87,147.37z"/>
	</g>
	<g>
		<path class="st0" d="M86,155.52H72.04c-0.87,0-1.58-0.71-1.58-1.58c0-0.87,0.7-1.58,1.58-1.58H86c0.87,0,1.58,0.71,1.58,1.58
			C87.58,154.81,86.88,155.52,86,155.52z"/>
	</g>
	<g>
		<path class="st0" d="M87.54,164.97h-15.5c-0.87,0-1.58-0.71-1.58-1.58c0-0.87,0.7-1.58,1.58-1.58h15.5c0.87,0,1.58,0.71,1.58,1.58
			C89.12,164.27,88.41,164.97,87.54,164.97z"/>
	</g>
	<path class="st2" d="M183.62,88.79l-1.27,8.82c14.55,9.28,22.97,15.62,22.97,15.62s-6.43-42.52-37.38-60.36
		c-31.41-18.11-64.22,7.25-64.22,7.25c7.45,1.05,16.37,4.08,25.79,8.21l6.03-7.26l-3.33,8.46c6.58,3,12.45,5.94,19.1,9.6l7.64-7.5
		l-3.75,9.68c8.21,4.61,16.14,9.42,23.18,13.87L183.62,88.79z"/>
	<g>
		<path class="st0" d="M90.7,174.43H73.47c-0.87,0-1.58-0.71-1.58-1.58c0-0.87,0.71-1.58,1.58-1.58H90.7c0.87,0,1.58,0.71,1.58,1.58
			C92.27,173.73,91.57,174.43,90.7,174.43z"/>
	</g>
</g>
<g>
	<path class="st1" d="M490.77,102.43c0.61-3.09,1.21-6.22,2.19-9.24l2.67-9.2c1.11-3,2.22-5.99,3.32-8.96
		c1.02-3.01,2.38-5.85,3.65-8.7c-0.77-4.39-2.47-8.56-7.02-9.39c-0.26-0.05-0.47-0.14-0.64-0.27c-0.87,1.34-1.72,2.7-2.63,4.05
		c-1.79,2.78-3.69,5.57-5.25,8.57c-1.65,2.98-3.32,5.97-4.98,8.99l-4.39,9.43c-1.56,3.13-2.73,6.42-3.94,9.7
		c-1.14,3.3-2.58,6.51-3.46,9.87c-1.85,6.7-3.82,13.33-4.73,20c-0.49,3.32-1.36,6.56-1.48,9.82c-0.23,3.26-0.47,6.45-0.69,9.56
		c-0.08,1.56-0.15,7.64-0.1,9.11c0.11,2.96,0.21,5.83,0.31,8.58c-0.01,2.77,0.57,5.36,0.88,7.85c0.38,2.49,1.45,9.76,1.71,11.01
		h32.41c-0.32-0.72-0.66-1.49-1.04-2.35c-1-2.39-2.55-5.2-3.43-8.7c-0.54-1.73-1.12-3.57-1.71-5.51c-0.56-1.96-1.41-3.98-1.71-6.21
		c-0.42-2.21-0.86-4.52-1.32-6.9c-0.23-1.21-0.94-6.2-1.08-7.49c-0.21-2.62-0.43-5.3-0.66-8.03c-0.35-2.76,0.02-5.58-0.02-8.47
		c-0.13-5.8,0.73-11.77,1.43-17.91C489.35,108.54,490.21,105.53,490.77,102.43z"/>
	<path class="st2" d="M568.27,20.85l5.75,6.8c16.6-4.72,26.93-6.81,26.93-6.81S564.88-2.57,530.99,8.75
		C496.6,20.24,493.8,61.61,493.8,61.61c5.72-4.88,13.92-9.54,23.25-13.85l-1.43-9.33l4.12,8.11c6.61-2.94,12.71-5.37,19.85-7.92
		l-0.54-10.69l4.75,9.23c8.89-3.09,17.76-5.83,25.77-8.14L568.27,20.85z"/>
	<path class="st3" d="M432.16,14.34l-6.74,5.83c-15.67-7.24-25.55-10.9-25.55-10.9s39.26-17.54,70.99-1.11
		c32.2,16.67,28.56,57.98,28.56,57.98c-4.9-5.71-12.27-11.58-20.83-17.28l2.86-9l-5.33,7.37c-6.07-3.93-11.72-7.27-18.39-10.9
		l2.19-10.48l-6.13,8.38c-8.31-4.42-16.64-8.51-24.2-12.03L432.16,14.34z"/>
	<path class="st2" d="M525.18,111.38l-4.7,4.33c3.88,11.76,5.7,19.1,5.7,19.1s15.7-26.57,6.56-50.53
		c-9.27-24.31-39.02-25.07-39.02-25.07c3.67,3.96,7.26,9.69,10.63,16.25l6.65-1.31l-5.69,3.2c2.31,4.65,4.23,8.95,6.28,14l7.65-0.71
		l-6.47,3.69c2.48,6.28,4.71,12.56,6.61,18.23L525.18,111.38z"/>
	<path class="st3" d="M427.39,82.97l0.53,7.9c-13.51,7.25-21.4,12.3-21.4,12.3s8.55-37.24,37.17-50.97
		c29.04-13.93,56.42,10.74,56.42,10.74c-6.67,0.43-14.78,2.52-23.4,5.54l-4.86-6.84l2.38,7.72c-6.03,2.21-11.43,4.43-17.56,7.22
		l-6.27-7.15l2.67,8.83c-7.58,3.53-14.93,7.26-21.47,10.74L427.39,82.97z"/>
	<g>
		<path class="st0" d="M489.96,75.65h-5.98c-0.87,0-1.58-0.71-1.58-1.58s0.71-1.58,1.58-1.58h5.98c0.87,0,1.58,0.71,1.58,1.58
			S490.84,75.65,489.96,75.65z"/>
	</g>
	<g>
		<path class="st0" d="M487.06,83h-6.04c-0.87,0-1.58-0.71-1.58-1.58c0-0.87,0.7-1.58,1.58-1.58h6.04c0.87,0,1.58,0.71,1.58,1.58
			C488.64,82.3,487.93,83,487.06,83z"/>
	</g>
	<g>
		<path class="st0" d="M484.71,89.83h-7.37c-0.87,0-1.58-0.71-1.58-1.58c0-0.87,0.7-1.58,1.58-1.58h7.37c0.87,0,1.58,0.71,1.58,1.58
			C486.29,89.13,485.58,89.83,484.71,89.83z"/>
	</g>
	<g>
		<path class="st0" d="M482.99,97.19h-8.28c-0.87,0-1.58-0.71-1.58-1.58c0-0.87,0.7-1.58,1.58-1.58h8.28c0.87,0,1.58,0.71,1.58,1.58
			C484.56,96.48,483.86,97.19,482.99,97.19z"/>
	</g>
	<g>
		<path class="st0" d="M480.83,105.07h-9.01c-0.87,0-1.58-0.71-1.58-1.58c0-0.87,0.7-1.58,1.58-1.58h9.01
			c0.87,0,1.58,0.71,1.58,1.58C482.4,104.37,481.7,105.07,480.83,105.07z"/>
	</g>
	<g>
		<path class="st0" d="M480,112h-10.02c-0.87,0-1.58-0.71-1.58-1.58c0-0.87,0.71-1.58,1.58-1.58H480c0.87,0,1.58,0.71,1.58,1.58
			C481.58,111.29,480.87,112,480,112z"/>
	</g>
	<g>
		<path class="st0" d="M476.85,120.46h-9.39c-0.87,0-1.58-0.7-1.58-1.58c0-0.87,0.71-1.58,1.58-1.58h9.39
			c0.87,0,1.58,0.71,1.58,1.58C478.43,119.75,477.72,120.46,476.85,120.46z"/>
	</g>
	<g>
		<path class="st0" d="M474.71,129.77h-9.35c-0.87,0-1.58-0.71-1.58-1.58c0-0.87,0.71-1.58,1.58-1.58h9.35
			c0.87,0,1.58,0.71,1.58,1.58C476.29,129.06,475.58,129.77,474.71,129.77z"/>
	</g>
	<g>
		<path class="st0" d="M474.71,138.67h-10.64c-0.87,0-1.58-0.7-1.58-1.58c0-0.87,0.7-1.58,1.58-1.58h10.64
			c0.87,0,1.58,0.71,1.58,1.58C476.29,137.97,475.58,138.67,474.71,138.67z"/>
	</g>
	<g>
		<path class="st0" d="M474.71,147.37h-11.82c-0.87,0-1.58-0.71-1.58-1.58c0-0.87,0.7-1.58,1.58-1.58h11.82
			c0.87,0,1.58,0.7,1.58,1.58C476.29,146.66,475.58,147.37,474.71,147.37z"/>
	</g>
	<g>
		<path class="st0" d="M476.85,155.52h-13.96c-0.87,0-1.58-0.71-1.58-1.58c0-0.87,0.7-1.58,1.58-1.58h13.96
			c0.87,0,1.58,0.71,1.58,1.58C478.43,154.81,477.72,155.52,476.85,155.52z"/>
	</g>
	<g>
		<path class="st0" d="M478.39,164.97h-15.5c-0.87,0-1.58-0.71-1.58-1.58c0-0.87,0.7-1.58,1.58-1.58h15.5
			c0.87,0,1.58,0.71,1.58,1.58C479.97,164.27,479.26,164.97,478.39,164.97z"/>
	</g>
	<path class="st2" d="M574.46,88.79l-1.27,8.82c14.55,9.28,22.97,15.62,22.97,15.62s-6.43-42.52-37.38-60.36
		c-31.41-18.11-64.22,7.25-64.22,7.25c7.45,1.05,16.37,4.08,25.79,8.21l6.03-7.26l-3.33,8.46c6.58,3,12.45,5.94,19.1,9.6l7.64-7.5
		l-3.75,9.68c8.21,4.61,16.14,9.42,23.18,13.87L574.46,88.79z"/>
	<g>
		<path class="st0" d="M481.54,174.43h-17.23c-0.87,0-1.58-0.71-1.58-1.58c0-0.87,0.71-1.58,1.58-1.58h17.23
			c0.87,0,1.58,0.71,1.58,1.58C483.12,173.73,482.41,174.43,481.54,174.43z"/>
	</g>
</g>
<g>
	<path class="st1" d="M308.04,202.93c-0.61,3.09-1.21,6.22-2.19,9.24l-2.66,9.2c-1.11,3-2.22,5.99-3.32,8.96
		c-1.02,3.01-2.38,5.85-3.65,8.7c0.77,4.38,2.47,8.56,7.03,9.39c0.26,0.05,0.47,0.14,0.64,0.27c0.87-1.34,1.72-2.7,2.63-4.05
		c1.79-2.78,3.69-5.57,5.25-8.57c1.65-2.98,3.32-5.98,4.98-8.99l4.39-9.43c1.56-3.13,2.73-6.42,3.93-9.7
		c1.14-3.3,2.58-6.51,3.45-9.87c1.84-6.7,3.82-13.33,4.73-20c0.49-3.32,1.35-6.56,1.48-9.82c0.23-3.26,0.47-6.45,0.69-9.56
		c0.08-1.56,0.15-7.64,0.1-9.11c-0.11-2.96-0.21-5.83-0.31-8.58c0.01-2.77-0.57-5.36-0.88-7.85c-0.38-2.49-1.45-9.76-1.71-11.01
		l-32.41,0c0.32,0.72,0.66,1.49,1.04,2.35c1,2.39,2.55,5.2,3.43,8.7c0.54,1.73,1.12,3.57,1.71,5.51c0.56,1.96,1.41,3.98,1.71,6.21
		c0.42,2.21,0.86,4.52,1.32,6.9c0.23,1.21,0.94,6.2,1.08,7.49c0.21,2.62,0.43,5.29,0.66,8.03c0.35,2.76-0.02,5.58,0.02,8.47
		c0.13,5.8-0.73,11.77-1.43,17.91C309.46,196.82,308.6,199.83,308.04,202.93z"/>
	<path class="st2" d="M230.55,284.52l-5.76-6.8c-16.6,4.72-26.93,6.82-26.93,6.82s36.07,23.4,69.96,12.08
		c34.39-11.49,37.18-52.87,37.18-52.87c-5.72,4.88-13.92,9.54-23.25,13.85l1.43,9.33l-4.12-8.11c-6.61,2.94-12.71,5.37-19.85,7.92
		l0.54,10.69l-4.75-9.22c-8.89,3.09-17.76,5.83-25.76,8.14L230.55,284.52z"/>
	<path class="st3" d="M366.66,291.02l6.74-5.83c15.67,7.23,25.55,10.9,25.55,10.9s-39.26,17.54-70.99,1.12
		c-32.2-16.67-28.56-57.98-28.56-57.98c4.9,5.7,12.28,11.58,20.83,17.28l-2.85,9l5.33-7.37c6.07,3.93,11.72,7.27,18.39,10.89
		l-2.19,10.48l6.12-8.38c8.31,4.42,16.64,8.5,24.2,12.03L366.66,291.02z"/>
	<path class="st2" d="M273.63,193.98l4.7-4.33c-3.89-11.76-5.7-19.1-5.7-19.1s-15.69,26.57-6.55,50.53
		c9.27,24.31,39.03,25.07,39.03,25.07c-3.67-3.96-7.26-9.69-10.63-16.25l-6.65,1.31l5.69-3.2c-2.31-4.65-4.23-8.95-6.28-14
		l-7.65,0.71l6.47-3.69c-2.48-6.28-4.71-12.56-6.62-18.23L273.63,193.98z"/>
	<path class="st3" d="M371.42,222.39l-0.53-7.9c13.51-7.26,21.39-12.31,21.39-12.31s-8.54,37.24-37.17,50.97
		c-29.04,13.94-56.42-10.73-56.42-10.73c6.67-0.43,14.78-2.52,23.4-5.54l4.86,6.84l-2.38-7.72c6.03-2.21,11.43-4.43,17.56-7.22
		l6.27,7.15l-2.67-8.83c7.58-3.53,14.93-7.26,21.47-10.74L371.42,222.39z"/>
	<g>
		<path class="st0" d="M308.85,229.71l5.98,0c0.87,0,1.58,0.71,1.58,1.58c0,0.87-0.71,1.58-1.58,1.58l-5.98,0
			c-0.87,0-1.58-0.71-1.58-1.58C307.27,230.42,307.98,229.71,308.85,229.71z"/>
	</g>
	<g>
		<path class="st0" d="M311.75,222.36l6.04,0c0.87,0,1.58,0.71,1.58,1.58c0,0.87-0.7,1.58-1.58,1.58l-6.04,0
			c-0.87,0-1.58-0.71-1.58-1.58C310.17,223.06,310.88,222.36,311.75,222.36z"/>
	</g>
	<g>
		<path class="st0" d="M314.1,215.53l7.37,0c0.87,0,1.58,0.71,1.58,1.58c0,0.87-0.7,1.58-1.58,1.58l-7.37,0
			c-0.87,0-1.58-0.71-1.58-1.58C312.52,216.23,313.23,215.53,314.1,215.53z"/>
	</g>
	<g>
		<path class="st0" d="M315.82,208.17l8.28,0c0.87,0,1.58,0.71,1.58,1.58c0,0.87-0.7,1.58-1.58,1.58l-8.28,0
			c-0.87,0-1.58-0.71-1.58-1.58C314.24,208.88,314.95,208.17,315.82,208.17z"/>
	</g>
	<g>
		<path class="st0" d="M317.98,200.29l9.01,0c0.87,0,1.58,0.71,1.58,1.58c0,0.87-0.7,1.58-1.58,1.58l-9.01,0
			c-0.87,0-1.58-0.71-1.58-1.58C316.4,200.99,317.11,200.29,317.98,200.29z"/>
	</g>
	<g>
		<path class="st0" d="M318.8,193.36l10.02,0c0.87,0,1.58,0.71,1.58,1.58c0,0.87-0.71,1.58-1.58,1.58l-10.02,0
			c-0.87,0-1.58-0.71-1.58-1.58C317.23,194.07,317.93,193.36,318.8,193.36z"/>
	</g>
	<g>
		<path class="st0" d="M321.96,184.9l9.39,0c0.87,0,1.58,0.7,1.58,1.58c0,0.87-0.71,1.58-1.58,1.58l-9.39,0
			c-0.87,0-1.58-0.71-1.58-1.58C320.38,185.61,321.09,184.9,321.96,184.9z"/>
	</g>
	<g>
		<path class="st0" d="M324.09,175.59l9.35,0c0.87,0,1.58,0.71,1.58,1.58c0,0.87-0.71,1.58-1.58,1.58l-9.35,0
			c-0.87,0-1.58-0.71-1.58-1.58C322.52,176.3,323.22,175.59,324.09,175.59z"/>
	</g>
	<g>
		<path class="st0" d="M324.09,166.69l10.64,0c0.87,0,1.58,0.7,1.58,1.58c0,0.87-0.7,1.58-1.58,1.58l-10.64,0
			c-0.87,0-1.58-0.71-1.58-1.58C322.52,167.39,323.22,166.69,324.09,166.69z"/>
	</g>
	<g>
		<path class="st0" d="M324.09,157.99l11.82,0c0.87,0,1.58,0.71,1.58,1.58c0,0.87-0.7,1.58-1.58,1.58l-11.82,0
			c-0.87,0-1.58-0.7-1.58-1.58C322.52,158.69,323.22,157.99,324.09,157.99z"/>
	</g>
	<g>
		<path class="st0" d="M321.95,149.84l13.96,0c0.87,0,1.58,0.71,1.58,1.58c0,0.87-0.7,1.58-1.58,1.58l-13.96,0
			c-0.87,0-1.58-0.71-1.58-1.58C320.38,150.55,321.08,149.84,321.95,149.84z"/>
	</g>
	<g>
		<path class="st0" d="M320.41,140.39l15.5,0c0.87,0,1.58,0.71,1.58,1.58c0,0.87-0.7,1.58-1.58,1.58l-15.5,0
			c-0.87,0-1.58-0.71-1.58-1.58C318.83,141.09,319.54,140.39,320.41,140.39z"/>
	</g>
	<path class="st2" d="M224.35,216.58l1.27-8.82c-14.55-9.28-22.97-15.62-22.97-15.62s6.43,42.52,37.39,60.36
		c31.41,18.1,64.22-7.26,64.22-7.26c-7.45-1.04-16.37-4.08-25.79-8.2l-6.03,7.26l3.33-8.46c-6.58-2.99-12.45-5.94-19.1-9.6
		l-7.64,7.5l3.75-9.68c-8.21-4.6-16.14-9.42-23.19-13.87L224.35,216.58z"/>
	<g>
		<path class="st0" d="M317.26,130.93l17.23,0c0.87,0,1.58,0.71,1.58,1.58c0,0.87-0.71,1.58-1.58,1.58l-17.23,0
			c-0.87,0-1.58-0.71-1.58-1.58C315.68,131.63,316.39,130.93,317.26,130.93z"/>
	</g>
</g>
</svg>
