<?xml version="1.0" encoding="utf-8"?>
<!-- Generator: Adobe Illustrator 25.2.1, SVG Export Plug-In . SVG Version: 6.00 Build 0)  -->
<svg version="1.1" id="Layer_1" xmlns="http://www.w3.org/2000/svg" xmlns:xlink="http://www.w3.org/1999/xlink" x="0px" y="0px"
	 viewBox="0 0 612 305.1" style="enable-background:new 0 0 612 305.1;" xml:space="preserve">
<style type="text/css">
	.st0{fill:#37B9C6;}
	.st1{fill:#E9E9E9;}
</style>
<g>
	<rect class="st0" width="612" height="305.1"/>
	<path class="st1" d="M175.39,36.45c0,3.08-3.98,5.59-8.9,5.59H37c-4.91,0-8.9-2.5-8.9-5.59l0,0c0-3.08,3.98-5.58,8.9-5.58h129.49
		C171.4,30.87,175.39,33.37,175.39,36.45L175.39,36.45z"/>
	<path class="st1" d="M607,27.09c0,3.63-2.94,6.57-6.57,6.57H462.05c-3.63,0-6.57-2.94-6.57-6.57l0,0c0-3.63,2.94-6.57,6.57-6.57
		h138.39c3.63,0,5.87,2.94,5.87,6.57H607z"/>
	<path class="st1" d="M483.39,139.06c0,3.08-3.98,5.59-8.9,5.59H345.01c-4.91,0-8.9-2.5-8.9-5.59l0,0c0-3.08,3.98-5.58,8.9-5.58
		H474.5C479.41,133.48,483.39,135.98,483.39,139.06L483.39,139.06z"/>
	<path class="st1" d="M286.14,225.41c0,5.34-4.33,9.67-9.66,9.67H72.87c-5.34,0-9.67-4.33-9.67-9.67l0,0c0-5.34,4.33-9.66,9.67-9.66
		h203.6c5.34,0,8.63,4.33,8.63,9.66H286.14z"/>
	<path class="st1" d="M350.11,168.36c0,5.34-4.33,9.67-9.67,9.67H199.78c-5.34,0-9.67-4.33-9.67-9.67l0,0
		c0-5.34,4.33-9.66,9.67-9.66h140.66C345.78,158.69,350.11,163.02,350.11,168.36L350.11,168.36z"/>
	<path class="st1" d="M586.43,220.91c0,3.63-2.94,6.57-6.57,6.57H441.47c-3.63,0-6.57-2.94-6.57-6.57l0,0
		c0-3.63,2.94-6.57,6.57-6.57h138.39c3.63,0,5.87,2.94,5.87,6.57H586.43z"/>
	<path class="st1" d="M546.37,253c0,5.34-4.33,9.67-9.66,9.67H333.1c-5.34,0-9.67-4.33-9.67-9.67l0,0c0-5.34,4.33-9.66,9.67-9.66
		h203.6c5.34,0,8.63,4.33,8.63,9.66H546.37z"/>
	<path class="st1" d="M162.47,269.08c0,3.08-3.98,5.59-8.9,5.59H24.08c-4.91,0-8.9-2.5-8.9-5.59l0,0c0-3.08,3.98-5.58,8.9-5.58
		h129.49C158.49,263.5,162.47,266,162.47,269.08L162.47,269.08z"/>
	<path class="st1" d="M160.24,129.44c0,3.63-2.94,6.57-6.57,6.57H15.28c-3.63,0-6.57-2.94-6.57-6.57l0,0c0-3.63,2.94-6.57,6.57-6.57
		h138.39c3.63,0,5.87,2.94,5.87,6.57H160.24z"/>
	<path class="st1" d="M611.08,168.36c0,3.08-3.98,5.59-8.9,5.59H472.69c-4.91,0-8.9-2.5-8.9-5.59l0,0c0-3.08,3.98-5.58,8.9-5.58
		h129.49C607.09,162.77,611.08,165.27,611.08,168.36L611.08,168.36z"/>
	<path class="st1" d="M397.61,81.12c0,5.34-4.33,9.67-9.66,9.67h-203.6c-5.34,0-9.67-4.33-9.67-9.67l0,0c0-5.34,4.33-9.66,9.67-9.66
		h203.6c5.34,0,8.63,4.33,8.63,9.66H397.61z"/>
	<path class="st1" d="M547.4,65.87c0,3.08-3.98,5.59-8.9,5.59H409.01c-4.91,0-8.9-2.5-8.9-5.59l0,0c0-3.08,3.98-5.58,8.9-5.58H538.5
		C543.42,60.29,547.4,62.79,547.4,65.87L547.4,65.87z"/>
</g>
</svg>
